<svg viewBox="0 0 24 13" xmlns="http://www.w3.org/2000/svg">
    <path d="M22.2866 2.10887C21.1819 1.00388 19.7131 0.395508 18.1509 0.395508C16.5884 0.395508 15.1196 1.00388 14.0149 2.10887L12.9982 3.12548L15.1194 5.24666L16.136 4.22995C17.2478 3.11913 19.0546 3.1196 20.1655 4.22995C21.2763 5.34106 21.2763 7.14864 20.1655 8.25974C19.0547 9.37057 17.2478 9.37108 16.136 8.25974L16.1125 8.23631L9.98513 2.10887C8.88038 1.00388 7.41162 0.395508 5.84913 0.395508C4.28687 0.395508 2.81812 1.00388 1.71336 2.10887C0.608377 3.21363 0 4.68238 0 6.24487C0 7.80737 0.608377 9.27612 1.71336 10.3809C2.81812 11.4859 4.28687 12.0942 5.84913 12.0942C7.41162 12.0942 8.88038 11.4859 9.98513 10.3809L11.0018 9.36426L8.88061 7.24308L7.86405 8.25979C6.75271 9.37113 4.94584 9.37061 3.83449 8.25979C2.72367 7.14868 2.72367 5.34111 3.83449 4.23C4.39016 3.67457 5.11967 3.39701 5.84936 3.39701C6.57887 3.39701 7.30833 3.67461 7.864 4.23L14.0149 10.3809C15.1196 11.4859 16.5884 12.0942 18.1509 12.0942C19.7131 12.0942 21.1819 11.4859 22.2866 10.3809C23.3916 9.27612 24 7.80737 24 6.24487C24 4.68238 23.3916 3.21363 22.2866 2.10887Z"/>
</svg>
