<svg viewBox="0 0 130 60"  xmlns="http://www.w3.org/2000/svg">
    <g id="Logo">
        <g id="Group">
            <path id="PIZZA" fill-rule="evenodd" clip-rule="evenodd" d="M60.3714 30.5993C60.4871 31.2165 61.0657 31.6408 61.6828 31.5251C62.3 31.4093 62.7243 30.8308 62.6085 30.2136C62.4157 28.9793 62.3385 27.3208 62.3771 26.0479C62.4157 25.3922 62.4157 24.6208 62.3771 23.7336C62.1843 16.7908 61.8371 11.5836 61.3357 8.15077C60.8343 4.6022 59.2143 1.82506 55.55 2.1722C53.8914 2.32649 53.2357 2.63506 52.8114 4.44792C52.5496 5.53263 52.5779 6.79871 52.6151 8.45719L52.6185 8.61363C52.6571 9.50077 52.6571 9.96363 52.6571 10.0408C52.6571 13.0409 52.7693 16.1532 52.92 20.3348L52.92 20.3351L52.9271 20.5322L53.0814 25.3151C53.1971 26.9736 53.1971 28.7865 52.8885 30.1365C52.7343 30.7536 53.0814 31.3322 53.6985 31.4865C54.3157 31.6408 54.8943 31.2936 55.0485 30.6765C55.4728 29.0179 55.4343 26.6651 55.3186 25.2379C55.28 24.8136 55.2028 22.5379 55.0871 18.4879C55.2028 18.5265 55.28 18.5265 55.3957 18.5265C55.7814 18.5265 56.63 18.5651 57.9414 18.6422C58.8285 18.6808 59.4843 18.7193 59.9857 18.7579C59.996 19.0761 60.0089 19.4297 60.0232 19.8182C60.0626 20.8896 60.1117 22.2255 60.14 23.8108C60.1785 24.6979 60.1785 25.4308 60.14 25.9708C60.1014 27.3208 60.1785 29.2108 60.3714 30.5993ZM2.39855 31.8722C3.01569 31.9108 3.55569 31.4479 3.59426 30.8308C3.86426 27.7065 3.90283 24.1579 3.78712 20.1851C6.64141 19.3751 8.41569 18.0251 9.14855 16.1351C9.80426 14.2836 9.64998 10.7736 8.72426 7.88077C7.68283 4.48649 5.59998 1.9022 2.62998 2.63506C1.66569 2.82792 1.04855 3.21363 0.739976 3.75363C0.624262 3.90792 0.585691 4.10077 0.585691 4.29363C0.547119 4.37077 0.547119 4.48649 0.547119 4.6022V5.33506C0.584729 6.35053 0.62234 6.81592 0.910263 10.3786L0.932833 10.6579C1.58855 19.2979 1.74283 25.9708 1.35712 30.6765C1.31855 31.2936 1.7814 31.8336 2.39855 31.8722ZM3.6714 17.8708C3.55569 15.8651 3.4014 13.3965 3.16998 10.5036C2.8614 7.10934 2.82283 6.2222 2.78426 5.25792V4.8722L3.09283 4.79506C3.78712 4.64077 4.44283 4.8722 5.0214 5.48934C6.25569 6.83934 7.14283 9.77077 7.29712 12.5093C7.4514 15.2865 7.37426 16.6751 3.6714 17.8708ZM17.2485 31.4865C15.59 31.6793 14.24 31.7565 13.1985 31.7179C12.5814 31.7179 12.1185 31.1779 12.1185 30.5608C12.1185 29.9436 12.6585 29.4808 13.2757 29.4808C14.1243 29.5193 15.1657 29.4422 16.3614 29.3265C16.35 29.1777 16.3385 28.9985 16.3251 28.7876L16.3251 28.7876C16.2932 28.2876 16.2499 27.6103 16.1685 26.7422C15.8723 23.3356 15.8249 21.4575 15.8216 17.7978L15.822 15.812C15.8238 14.2499 15.831 12.5576 15.86 10.7351C15.8985 8.30506 15.8985 6.45363 15.8985 5.1422V5.06506H13.5843C12.9671 5.06506 12.4657 4.56363 12.4657 3.94649C12.4657 3.32934 12.9671 2.82792 13.5843 2.82792L16.4973 2.82721C18.8931 2.82524 20.383 2.81777 20.9514 2.78934C21.5685 2.78934 22.1085 3.2522 22.1085 3.86934C22.1085 4.48649 21.6457 5.02649 21.0285 5.02649C20.18 5.06506 19.2157 5.06506 18.1357 5.06506V14.0136C18.0585 19.9151 18.0585 22.8465 18.1357 22.8465C18.1743 23.5793 18.2514 24.8136 18.4057 26.5493C18.5051 27.4438 18.5475 28.1959 18.582 28.8058L18.582 28.8063L18.5821 28.8081C18.5877 28.9075 18.5931 29.0032 18.5985 29.0951C19.9485 28.9408 21.0671 28.8636 21.9543 28.8636C22.5714 28.8636 23.0728 29.3651 23.0728 29.9822C23.0728 30.5993 22.5714 31.1008 21.9543 31.1008C21.0671 31.1008 19.7557 31.2165 18.02 31.4093C17.8657 31.4865 17.7114 31.5251 17.5185 31.5251C17.4414 31.5251 17.3643 31.5251 17.2485 31.4865ZM28.6657 31.7951C29.9 31.9108 33.3714 31.8722 34.9143 31.7179C35.5314 31.6793 35.9557 31.1008 35.9171 30.4836C35.8785 29.8665 35.3 29.4422 34.6828 29.4808C33.2943 29.6351 29.9 29.6736 28.82 29.5579H28.7043L29.0514 27.7451C29.1251 27.4749 29.1831 27.2047 29.2455 26.9146C29.281 26.7491 29.318 26.5772 29.36 26.3951C29.4001 26.2346 29.4356 26.0788 29.4696 25.9292L29.4696 25.9292C29.5338 25.6473 29.593 25.3876 29.6685 25.1608C29.7457 24.8136 29.7843 24.6208 29.7843 24.5436C30.8257 19.9151 32.33 14.3993 34.3743 7.95792C34.3743 7.91934 34.5671 7.49506 34.9914 6.64649C35.3385 5.83649 35.4543 5.1422 35.3385 4.52506C35.0685 2.94363 33.7957 2.7122 32.4071 2.7122C32.06 2.7122 31.4428 2.7122 30.5557 2.75077C30.1512 2.75957 29.7848 2.76836 29.4565 2.77624L29.4564 2.77624L29.4564 2.77624L29.4564 2.77624C28.3446 2.80292 27.6696 2.81912 27.4314 2.78934C27.1228 2.75077 26.8528 2.82792 26.6214 3.02077C26.3514 3.21363 26.2357 3.48363 26.1971 3.7922C26.1585 4.40934 26.5828 4.98792 27.2 5.02649C27.5312 5.0566 28.2858 5.03969 29.5002 5.01247L29.5003 5.01247C29.8413 5.00483 30.2185 4.99637 30.6328 4.98792C31.5971 4.94934 32.1757 4.94934 32.4071 4.94934H32.9471C32.9693 4.92716 32.9787 4.91774 32.9901 4.91373C32.9984 4.91077 33.0079 4.91077 33.0243 4.91077C33.0628 4.91077 33.1014 4.91077 33.0628 4.94934C33.0854 4.93805 33.1047 4.92675 33.1207 4.91739C33.1593 4.8948 33.1785 4.8835 33.1785 4.91077C33.2171 5.10363 33.14 5.33506 32.9471 5.6822C32.6885 6.27001 32.4872 6.68583 32.3607 6.94713L32.3607 6.94717C32.2796 7.1145 32.2293 7.21846 32.2143 7.26363C30.17 13.7822 28.6271 19.3751 27.6243 24.0808C27.5902 24.1148 27.5562 24.2691 27.4956 24.5436L27.47 24.6593L27.1614 25.9322C27.0457 26.4336 26.9685 26.8579 26.8914 27.2822C26.6985 28.1308 26.5443 28.8251 26.4671 29.3265L26.4504 29.459C26.4181 29.7122 26.39 29.9332 26.39 30.0979V30.4836C26.5057 31.1008 26.8528 31.4479 27.3543 31.6022L27.74 31.7179C28.01 31.7565 28.3185 31.7951 28.6657 31.7951ZM47.7585 31.7179C46.2157 31.8722 42.7443 31.9108 41.51 31.7951C41.1628 31.7951 40.8543 31.7565 40.5843 31.7179L40.1985 31.6022C39.6971 31.4479 39.35 31.1008 39.2343 30.4836V30.0979C39.2343 29.9332 39.2624 29.7122 39.2946 29.459L39.3114 29.3265C39.3885 28.8251 39.5428 28.1308 39.7357 27.2822L39.7357 27.282C39.8129 26.8578 39.89 26.4336 40.0057 25.9322L40.3143 24.6593L40.3399 24.5436L40.3399 24.5435L40.3399 24.5434C40.4005 24.269 40.4345 24.1148 40.4685 24.0808C41.4714 19.3751 43.0143 13.7822 45.0585 7.26363C45.0736 7.21847 45.1239 7.11456 45.2049 6.94731L45.2049 6.9472L45.2049 6.94716L45.205 6.94706C45.3315 6.68576 45.5328 6.26996 45.7914 5.6822C45.9843 5.33506 46.0614 5.10363 46.0228 4.91077C46.0228 4.8835 46.0036 4.8948 45.965 4.91739L45.9649 4.91741L45.9649 4.91744C45.9489 4.92679 45.9297 4.93807 45.9071 4.94934C45.9457 4.91077 45.9071 4.91077 45.8685 4.91077C45.8522 4.91077 45.8427 4.91077 45.8344 4.91373C45.823 4.91774 45.8136 4.92717 45.7914 4.94934H45.2514C45.02 4.94934 44.4414 4.94934 43.4771 4.98792C43.0628 4.99637 42.6855 5.00483 42.3445 5.01247C41.1301 5.03969 40.3755 5.0566 40.0443 5.02649C39.4271 4.98792 39.0028 4.40934 39.0414 3.7922C39.08 3.48363 39.1957 3.21363 39.4657 3.02077C39.6971 2.82792 39.9671 2.75077 40.2757 2.78934C40.5139 2.81912 41.1889 2.80292 42.3007 2.77624C42.629 2.76836 42.9955 2.75957 43.4 2.75077C44.2871 2.7122 44.9043 2.7122 45.2514 2.7122C46.64 2.7122 47.9128 2.94363 48.1828 4.52506C48.2985 5.1422 48.1828 5.83649 47.8357 6.64649C47.4114 7.49506 47.2185 7.91934 47.2185 7.95792C45.1743 14.3993 43.67 19.9151 42.6285 24.5436C42.6285 24.6208 42.59 24.8136 42.5128 25.1608C42.4372 25.3876 42.3781 25.6473 42.3139 25.9292C42.2799 26.0788 42.2444 26.2346 42.2043 26.3951C42.1622 26.5772 42.1253 26.7491 42.0897 26.9146L42.0897 26.9146L42.0897 26.9148C42.0274 27.2048 41.9694 27.4749 41.8957 27.7451L41.5485 29.5579H41.6643C42.7443 29.6736 46.1385 29.6351 47.5271 29.4808C48.1443 29.4422 48.7228 29.8665 48.7614 30.4836C48.8 31.1008 48.3757 31.6793 47.7585 31.7179ZM58.9953 16.4668C59.3724 16.491 59.6828 16.5109 59.87 16.5208C59.7157 13.5508 59.4457 10.8893 59.0985 8.45934C58.6743 5.6822 57.7486 4.21649 55.7814 4.40934C55.4343 4.44792 55.2414 4.44792 55.1643 4.44792C55.0871 4.56363 55.01 4.71792 54.9714 4.94934C54.8171 5.75934 54.8171 6.72363 54.8557 8.53649C54.8943 9.42363 54.8943 9.92506 54.8943 10.0408C54.8943 11.8536 54.9328 13.9365 55.01 16.3665C55.1257 16.3279 55.28 16.2893 55.3957 16.2893C56.2286 16.2893 57.8956 16.3963 58.9953 16.4668Z" />
            <path id="MENU" fill-rule="evenodd" clip-rule="evenodd" d="M6.68571 59.3222C6.59048 59.427 6.38095 59.4793 6.05714 59.4793C5.90476 59.4793 5.57143 59.4603 5.05714 59.4222C4.54286 59.3841 4 59.3651 3.42857 59.3651C2.74286 59.3651 2.21905 59.3793 1.85714 59.4079C1.49524 59.4365 1.10476 59.4603 0.685714 59.4793C0.533333 59.4793 0.380952 59.4412 0.228571 59.3651C0.0761905 59.2889 0 59.127 0 58.8793C0 58.746 0.0380952 58.5651 0.114286 58.3365C0.380952 57.4984 0.542857 56.9651 0.6 56.7365C0.657143 56.5079 0.704762 55.8984 0.742857 54.9079C0.780952 53.9174 0.8 53.1841 0.8 52.7079V44.7651C0.8 44.1555 0.785714 43.5698 0.757143 43.0079C0.728571 42.446 0.67619 42.0032 0.6 41.6793C0.52381 41.3555 0.438095 41.046 0.342857 40.7508C0.247619 40.4555 0.2 40.2317 0.2 40.0793C0.2 39.8508 0.285714 39.6936 0.457143 39.6079C0.628571 39.5222 0.8 39.4793 0.971429 39.4793C1.46667 39.4793 1.87619 39.5032 2.2 39.5508C2.52381 39.5984 2.91429 39.6222 3.37143 39.6222C4 39.6222 4.43333 39.5984 4.67143 39.5508C4.90952 39.5032 5.14286 39.4793 5.37143 39.4793C5.77143 39.4793 6.08571 39.746 6.31429 40.2793C6.48571 40.6984 6.65714 41.1079 6.82857 41.5079C7.15238 42.2317 7.41905 42.746 7.62857 43.0508C7.99048 43.6032 8.37143 43.8793 8.77143 43.8793C8.98095 43.8793 9.20952 43.7555 9.45714 43.5079C9.78095 43.1841 10.1905 42.6032 10.6857 41.7651C11.3143 40.6984 11.7286 40.0508 11.9286 39.8222C12.1286 39.5936 12.3905 39.4793 12.7143 39.4793C13.0571 39.4793 13.3333 39.4984 13.5429 39.5365C13.7524 39.5746 14.0762 39.5936 14.5143 39.5936C15.1048 39.5936 15.5667 39.5841 15.9 39.5651C16.2333 39.546 16.5714 39.5174 16.9143 39.4793C17.1619 39.4793 17.3429 39.527 17.4571 39.6222C17.5714 39.7174 17.6286 39.8603 17.6286 40.0508C17.6286 40.6032 17.5143 41.1746 17.2857 41.7651C17.0571 42.3555 16.9429 43.2889 16.9429 44.5651V53.2222C16.9429 54.4793 17.0571 55.6508 17.2857 56.7365C17.3619 57.0793 17.4524 57.4793 17.5571 57.9365C17.6619 58.3936 17.7143 58.7174 17.7143 58.9079C17.7143 59.0793 17.6714 59.2174 17.5857 59.3222C17.5 59.427 17.3238 59.4793 17.0571 59.4793C16.8667 59.4793 16.5048 59.4603 15.9714 59.4222C15.4381 59.3841 14.8667 59.3651 14.2571 59.3651C13.6286 59.3651 13.1333 59.3841 12.7714 59.4222C12.4095 59.4603 12.0381 59.4793 11.6571 59.4793C11.1619 59.4793 10.9143 59.3174 10.9143 58.9936C11.1619 58.2127 11.3714 57.4174 11.5429 56.6079C11.7143 55.7984 11.8 54.8412 11.8 53.7365V48.4793C11.8 48.1174 11.7048 47.9365 11.5143 47.9365C11.419 47.9365 11.2667 48.0746 11.0571 48.3508C10.8476 48.627 10.6857 48.8317 10.5714 48.9651L9.82857 50.0508C9.52381 50.4127 9.2 50.5936 8.85714 50.5936C8.51429 50.5936 8.22381 50.4936 7.98571 50.2936C7.74762 50.0936 7.41905 49.6222 7 48.8793C6.88571 48.6889 6.7619 48.4841 6.62857 48.2651C6.49524 48.046 6.35238 47.9365 6.2 47.9365C6.08571 47.9365 6.01429 47.9793 5.98571 48.0651C5.95714 48.1508 5.94286 48.2698 5.94286 48.4222V53.6793C5.94286 54.727 6.02857 55.6603 6.2 56.4793C6.25714 56.7841 6.40952 57.2984 6.65714 58.0222C6.77143 58.4032 6.82857 58.6984 6.82857 58.9079C6.82857 59.0793 6.78095 59.2174 6.68571 59.3222ZM31.4714 59.3079C31.1762 59.4222 30.7714 59.4793 30.2571 59.4793L26.8286 59.3936L23.4 59.3365C22.2762 59.3365 21.4476 59.3603 20.9143 59.4079C20.381 59.4555 20.0095 59.4793 19.8 59.4793C19.5714 59.4793 19.3571 59.4412 19.1571 59.3651C18.9571 59.2889 18.8571 59.1555 18.8571 58.9651C18.8571 58.4127 18.9429 57.9746 19.1143 57.6508C19.4952 56.927 19.6857 55.6889 19.6857 53.9365V44.7651C19.6857 43.6032 19.619 42.7174 19.4857 42.1079C19.3143 41.4793 19.1429 40.8412 18.9714 40.1936C18.9714 39.9651 19.0667 39.7889 19.2571 39.6651C19.4476 39.5412 19.7524 39.4793 20.1714 39.4793L22.2286 39.5651C22.5524 39.5651 23.0571 39.5746 23.7429 39.5936C24.3524 39.6106 24.8265 39.62 25.1651 39.6218L27.4286 39.6222C28.0381 39.6222 28.6571 39.5936 29.2857 39.5365L30.4857 39.4793C30.7524 39.4793 30.9667 39.5365 31.1286 39.6508C31.2905 39.7651 31.3714 39.9841 31.3714 40.3079C31.3714 40.5555 31.3524 40.8984 31.3143 41.3365C31.2762 41.7746 31.2571 42.2127 31.2571 42.6508C31.2571 42.7841 31.2667 42.9365 31.2857 43.1079C31.3048 43.2793 31.3381 43.4841 31.3857 43.7222C31.4333 43.9603 31.4762 44.1698 31.5143 44.3508C31.5524 44.5317 31.5714 44.6984 31.5714 44.8508C31.5714 45.4412 31.2667 45.7365 30.6571 45.7365C30.3905 45.7365 30.1238 45.6603 29.8571 45.5079C29.5524 45.2984 29.3333 45.146 29.2 45.0508C28.4952 44.5746 27.7238 44.3365 26.8857 44.3365C26.2 44.3365 25.6857 44.4698 25.3429 44.7365C25 45.0032 24.8286 45.327 24.8286 45.7079C24.8286 46.146 25.0286 46.4508 25.4286 46.6222C25.8286 46.7936 26.381 46.8793 27.0857 46.8793C27.3714 46.8793 27.8524 46.8603 28.5286 46.8222C29.2048 46.7841 29.5619 46.7651 29.6 46.7651C30.2667 46.7651 30.8143 46.846 31.2429 47.0079C31.6714 47.1698 31.8857 47.4889 31.8857 47.9651C31.8857 48.2889 31.719 48.5698 31.3857 48.8079C31.0524 49.046 30.4857 49.1651 29.6857 49.1651H26C25.6 49.1651 25.3048 49.2412 25.1143 49.3936C24.9238 49.546 24.8286 49.8603 24.8286 50.3365V54.6793C24.8286 55.2889 25 55.6984 25.3429 55.9079C25.5714 56.0412 25.9238 56.1079 26.4 56.1079H26.7714C27.419 56.1079 27.9286 56.0793 28.3 56.0222C28.6714 55.9651 29.1238 55.8032 29.6571 55.5365C29.8857 55.4222 30.1143 55.2984 30.3429 55.1651C30.7429 54.9174 31.0667 54.7936 31.3143 54.7936C31.581 54.7936 31.7619 54.8651 31.8571 55.0079C31.9524 55.1508 32 55.2984 32 55.4508C32 55.6412 31.9762 55.8698 31.9286 56.1365C31.881 56.4032 31.8571 56.7365 31.8571 57.1365L31.9143 58.5651C31.9143 58.946 31.7667 59.1936 31.4714 59.3079ZM34.4571 59.4793C34.5905 59.4793 34.919 59.4651 35.4429 59.4365C35.9667 59.4079 36.5429 59.3936 37.1714 59.3936C37.6857 59.3936 38.1429 59.4079 38.5429 59.4365C38.9429 59.4651 39.3619 59.4793 39.8 59.4793C39.9714 59.4793 40.1286 59.446 40.2714 59.3793C40.4143 59.3127 40.4857 59.1841 40.4857 58.9936C40.2762 58.4222 40.0667 57.8412 39.8571 57.2508C39.6667 56.6032 39.5714 55.8508 39.5714 54.9936V48.6508C39.5714 48.2889 39.6048 48.0365 39.6714 47.8936C39.7381 47.7508 39.819 47.6793 39.9143 47.6793C40.3714 47.6793 41.0095 48.2222 41.8286 49.3079C42.7238 50.4889 43.1714 51.5841 43.1714 52.5936V55.3365C43.1714 56.6127 43.0667 57.4222 42.8571 57.7651C42.6476 58.1079 42.5429 58.4793 42.5429 58.8793C42.5429 59.1079 42.6571 59.2793 42.8857 59.3936C43.019 59.4508 43.1714 59.4793 43.3429 59.4793C43.7619 59.4603 44.1667 59.4365 44.5571 59.4079C44.9476 59.3793 45.3714 59.3651 45.8286 59.3651C46.0762 59.3651 46.4571 59.3841 46.9714 59.4222C47.4857 59.4603 47.9238 59.4793 48.2857 59.4793C48.4571 59.4793 48.6095 59.4508 48.7429 59.3936C48.8762 59.3365 48.9429 59.2032 48.9429 58.9936L48.4857 57.2222C48.3714 56.6127 48.3143 55.7841 48.3143 54.7365V44.7936C48.3143 43.7079 48.381 42.7841 48.5143 42.0222C48.6476 41.2603 48.8 40.5746 48.9714 39.9651C48.9714 39.6412 48.7429 39.4793 48.2857 39.4793C47.7524 39.4793 47.3476 39.4936 47.0714 39.5222C46.7952 39.5508 46.2762 39.5651 45.5143 39.5651L42.7429 39.4793C42.381 39.4793 42.1524 39.527 42.0571 39.6222C41.9619 39.7174 41.9143 39.8317 41.9143 39.9651C41.9143 40.0412 41.9714 40.146 42.0857 40.2793C42.2762 40.4889 42.4333 40.6889 42.5571 40.8793C42.681 41.0698 42.8 41.3412 42.9143 41.6936C43.0286 42.046 43.0857 42.4032 43.0857 42.7651V43.2222C43.0857 43.3174 43.0381 43.3936 42.9429 43.4508C42.9238 43.4508 42.8857 43.4603 42.8286 43.4793C42.7143 43.4793 42.5048 43.3079 42.2 42.9651C41.6857 42.3936 41.1714 41.8698 40.6571 41.3936C40.0286 40.7841 39.5048 40.3365 39.0857 40.0508C38.5333 39.6698 38.0476 39.4793 37.6286 39.4793L36.7714 39.5365L35.8 39.5651L34.5714 39.5365L33.8 39.4793C33.381 39.4793 33.1714 39.6793 33.1714 40.0793C33.1714 40.3079 33.219 40.5079 33.3143 40.6793C33.7524 41.4984 34.019 42.0889 34.1143 42.4508C34.3238 43.1936 34.4286 44.2698 34.4286 45.6793V55.3936C34.4286 55.946 34.3905 56.3936 34.3143 56.7365C34.2381 57.0793 34.1143 57.4603 33.9429 57.8793C33.7143 58.4889 33.6 58.8412 33.6 58.9365C33.6 59.1841 33.6905 59.3365 33.8714 59.3936C34.0524 59.4508 34.2476 59.4793 34.4571 59.4793ZM61.8714 58.4079C60.7762 59.2746 59.1524 59.7079 57 59.7079C54.5048 59.7079 52.7619 59.1555 51.7714 58.0508C51.0667 57.2698 50.7143 56.1555 50.7143 54.7079V44.2508C50.7143 43.8889 50.6952 43.4032 50.6571 42.7936C50.619 42.1841 50.5714 41.7746 50.5143 41.5651C50.4571 41.3555 50.3762 41.0793 50.2714 40.7365C50.1667 40.3936 50.1143 40.127 50.1143 39.9365C50.1143 39.6317 50.3048 39.4793 50.6857 39.4793C50.9333 39.4793 51.2952 39.4936 51.7714 39.5222C52.1947 39.5476 52.7309 39.5617 53.3799 39.5645L53.6286 39.5651C54.2571 39.5651 54.7333 39.5508 55.0571 39.5222C55.381 39.4936 55.7524 39.4793 56.1714 39.4793C56.5333 39.4793 56.7143 39.6317 56.7143 39.9365C56.7143 39.9936 56.681 40.1174 56.6143 40.3079C56.5476 40.4984 56.481 40.7174 56.4143 40.9651C56.3476 41.2127 56.2952 41.4508 56.2571 41.6793C56.1048 42.3651 56 42.8746 55.9429 43.2079C55.8857 43.5412 55.8571 44.0222 55.8571 44.6508V53.6508C55.8571 54.2032 55.9429 54.6174 56.1143 54.8936C56.2857 55.1698 56.6095 55.3079 57.0857 55.3079C57.6571 55.3079 58.0381 55.0889 58.2286 54.6508C58.3238 54.4222 58.3714 54.1079 58.3714 53.7079V43.7079C58.3714 43.1365 58.3571 42.6984 58.3286 42.3936C58.3 42.0889 58.2286 41.7555 58.1143 41.3936C57.9809 41.0698 57.8857 40.8317 57.8286 40.6793C57.7143 40.3936 57.6571 40.1651 57.6571 39.9936C57.6571 39.8222 57.7 39.6936 57.7857 39.6079C57.8714 39.5222 58.0286 39.4793 58.2571 39.4793C58.7524 39.4793 59.2048 39.4889 59.6143 39.5079C60.0238 39.527 60.419 39.546 60.8 39.5651L61.2101 39.5644C61.9243 39.5619 62.4304 39.5526 62.7286 39.5365C63.081 39.5174 63.419 39.4984 63.7429 39.4793C64.1238 39.4793 64.3143 39.6317 64.3143 39.9365C64.3143 40.2793 64.2381 40.6508 64.0857 41.0508C63.7048 42.0603 63.5143 43.3365 63.5143 44.8793V54.4222C63.5143 56.2127 62.9667 57.5412 61.8714 58.4079Z" />
        </g>
        <g id="003-pizza-slice">
            <path id="Path" d="M96.3524 15.771C96.3524 15.275 96.2182 14.8118 96.0238 14.3719C93.7471 14.6471 91.4851 15.0715 89.3581 15.6309C89.3563 15.6788 89.343 15.7231 89.343 15.771C89.343 17.7032 90.9156 19.2757 92.8477 19.2757C94.7794 19.2757 96.3524 17.7032 96.3524 15.771Z" />
            <path id="Shape" fill-rule="evenodd" clip-rule="evenodd" d="M124.388 18.9558C123.02 18.9558 121.705 18.646 120.477 18.0331C119.51 17.5503 118.424 17.1122 117.286 16.7024C116.844 19.1566 114.703 21.028 112.123 21.028C109.224 21.028 106.866 18.6697 106.866 15.771V14.3281C105.097 14.1264 103.324 14.0137 101.607 14.0137C100.954 14.0137 100.288 14.0411 99.6219 14.0712C99.7616 14.6265 99.8569 15.1938 99.8569 15.771C99.8569 19.6371 96.7132 22.7804 92.8476 22.7804C89.3 22.7804 86.3927 20.1245 85.9322 16.7015C84.7964 17.1108 83.7122 17.548 82.7475 18.0299C81.5701 18.6186 80.2403 18.9321 78.9024 18.9321C78.8587 18.9321 78.8166 18.9234 78.7744 18.9147C78.7351 18.9066 78.6958 18.8985 78.655 18.8974L82.3336 25.7256V43.8084C82.3336 46.7071 84.6915 49.0654 87.5906 49.0654C90.0804 49.0654 92.1695 47.3268 92.7121 44.9995L100.065 58.8908C100.372 59.459 100.964 59.8131 101.609 59.8131C102.254 59.8131 102.846 59.459 103.153 58.8908L108.417 48.8797C107.916 48.9933 107.401 49.0654 106.866 49.0654C102.995 49.0654 99.8569 45.9272 99.8569 42.0561C99.8569 38.185 102.995 35.0467 106.866 35.0467C109.872 35.0467 112.414 36.9478 113.411 39.6055L124.541 18.9344C124.516 18.9348 124.491 18.9399 124.466 18.9451C124.441 18.9504 124.415 18.9558 124.388 18.9558ZM98.1046 33.2944C95.2055 33.2944 92.8476 30.936 92.8476 28.0374C92.8476 27.069 93.6311 26.285 94.5999 26.285C95.5683 26.285 96.3523 27.069 96.3523 28.0374C96.3523 29.0044 97.1376 29.7897 98.1046 29.7897C99.0711 29.7897 99.8569 29.0044 99.8569 28.0374C99.8569 27.069 100.64 26.285 101.609 26.285C102.578 26.285 103.362 27.069 103.362 28.0374C103.362 30.936 101.003 33.2944 98.1046 33.2944ZM106.866 26.285C106.866 27.2529 107.651 28.0374 108.619 28.0374C109.586 28.0374 110.371 27.2529 110.371 26.285C110.371 25.3172 109.586 24.5327 108.619 24.5327C107.651 24.5327 106.866 25.3172 106.866 26.285Z" />
            <path id="Path_2" d="M106.866 38.5514C104.934 38.5514 103.362 40.1239 103.362 42.0561C103.362 43.9882 104.934 45.5607 106.866 45.5607C108.798 45.5607 110.371 43.9882 110.371 42.0561C110.371 40.1239 108.798 38.5514 106.866 38.5514Z" />
            <path id="Path_3" d="M129.092 12.5434C130.387 9.95272 129.333 6.78848 126.741 5.48974C119.969 2.10326 110.342 0 101.614 0C92.8819 0 83.2508 2.10326 76.4793 5.48974C73.885 6.78848 72.829 9.9509 74.1264 12.5452C75.3941 15.0692 78.6405 16.1662 81.18 14.8949C86.5105 12.2303 94.5279 10.509 101.607 10.509C104.457 10.509 107.454 10.7988 110.371 11.3058V15.771C110.371 16.7389 111.155 17.5234 112.123 17.5234C113.091 17.5234 113.876 16.7389 113.876 15.771V12.0409C116.9 12.7784 119.728 13.7412 122.038 14.8967C124.618 16.1804 127.774 15.1746 129.092 12.5434Z" />
        </g>
    </g>
</svg>
